<?xml version="1.0" encoding="utf-8"?>
<!-- Generator: Adobe Illustrator 25.4.1, SVG Export Plug-In . SVG Version: 6.00 Build 0)  -->
<svg version="1.1" id="图层_1" xmlns="http://www.w3.org/2000/svg" xmlns:xlink="http://www.w3.org/1999/xlink" x="0px" y="0px"
	 viewBox="0 0 24 24" style="enable-background:new 0 0 24 24;" xml:space="preserve">
<style type="text/css">
	.st0{fill:#7F4CBF;}
</style>
<g>
	<g>
		<path class="st0" d="M9.2,3.7c1-0.3,2-0.5,3-0.4c0.4,0,0.9,0.1,1.3,0.1c1.5,0.3,3,1,4.2,2c1,0.9,1.8,2,2.3,3.2
			c0.1,0.3,0.2,0.6,0.3,0.9C19,9.3,17.8,8.7,16.7,8c-1.4-0.8-2.8-1.7-4.2-2.6C11.5,4.8,10.4,4.2,9.2,3.7C9.2,3.8,9.2,3.8,9.2,3.7z"
			/>
		<path class="st0" d="M7,4.8c0,0,0.1-0.1,0.2-0.1c0.2,0,0.4,0.1,0.6,0.2C8.6,5.1,9.3,5.5,10,5.8c0.9,0.4,1.8,0.9,2.7,1.4
			c1,0.5,1.9,1,2.9,1.5c1.6,0.7,3.2,1.2,4.9,1.4c0.1,0.1,0.1,0.3,0.1,0.4c-0.6,0.1-1.1,0-1.7,0c-1.7-0.2-3.3-0.8-4.9-1.4
			c-1.3-0.5-2.5-1-3.8-1.4c-1.5-0.5-3-0.8-4.6-0.9c-0.2,0-0.4,0-0.6,0c0-0.1,0.1-0.2,0.2-0.3C5.8,5.8,6.4,5.3,7,4.8z"/>
		<path class="st0" d="M3.8,8.9c0.4-0.1,0.7-0.1,1.1-0.1c0.5,0,1,0,1.6,0.1c1,0.1,2,0.3,2.9,0.6c0.8,0.2,1.6,0.5,2.4,0.7
			c1.8,0.5,3.6,0.8,5.4,1c1.1,0.1,2.3,0.1,3.4-0.1c0,0.1,0,0.2,0,0.2c-0.7,0.3-1.6,0.5-2.4,0.5c-0.4,0-0.7,0-1.1,0
			c-1.6-0.1-3.2-0.4-4.8-0.6c-1.1-0.2-2.2-0.4-3.3-0.5c-1-0.1-2-0.2-3-0.1c-0.7,0-1.4,0.1-2.1,0.2c-0.2,0.1-0.5,0.1-0.7,0.2
			C3.4,10.3,3.6,9.6,3.8,8.9z"/>
		<path class="st0" d="M19.9,12.3c0.3-0.1,0.5-0.2,0.8-0.3c0,0.1,0,0.1-0.1,0.1c-0.5,0.5-1.2,0.7-1.8,0.9c-0.9,0.3-1.7,0.4-2.6,0.5
			c-1.5,0.1-3.1,0.2-4.6,0.3c-1.4,0.1-2.7,0.3-4,0.7c-0.7,0.2-1.4,0.5-2,1c-0.3,0.2-0.6,0.5-0.9,0.8c-0.1,0.1-0.1,0.2-0.2,0.3
			c-0.6-0.9-1-2-1.2-3.1c0.3-0.2,0.6-0.2,0.9-0.3c0.6-0.2,1.2-0.2,1.7-0.3c1.9-0.1,3.7,0,5.6,0.2c0.9,0.1,1.8,0.1,2.7,0
			c0.4,0,0.9-0.1,1.3-0.1c0.5-0.1,1.1-0.1,1.6-0.2C18.1,12.8,19,12.6,19.9,12.3z"/>
		<path class="st0" d="M20.2,13.1c0.1-0.1,0.3-0.2,0.4-0.3c-0.1,1.6-0.7,3.1-1.6,4.3c-1.3,1.8-3.4,3.1-5.6,3.4
			c-0.7,0.1-1.3,0.1-2,0.1c-1.9-0.1-3.8-0.9-5.3-2.2c-0.1-0.1-0.2-0.1-0.2-0.2c0-0.4,0.2-0.8,0.5-1c0.5-0.4,1-0.6,1.6-0.9
			c0.8-0.3,1.5-0.5,2.3-0.6c0.9-0.2,1.8-0.3,2.8-0.4c1.5-0.2,3-0.6,4.5-1.1C18.6,14,19.4,13.6,20.2,13.1z"/>
	</g>
</g>
</svg>
